name ./resultDataOpenSim/trcMotMarkerGrf/sub09/grf-14-07.mot
datacolumns 19
datarows 15
range 0.96800000 1.02400000
endheader

                time	     ground_force_vx	     ground_force_vy	     ground_force_vz	     ground_force_px	     ground_force_py	     ground_force_pz	   l_ground_force_vx	   l_ground_force_vy	   l_ground_force_vz	   l_ground_force_px	   l_ground_force_py	   l_ground_force_pz	     ground_torque_x	     ground_torque_y	     ground_torque_z	   l_ground_torque_x	   l_ground_torque_y	   l_ground_torque_z	
          0.96800000	          0.00000000	          0.00000000	          0.00000000	          0.00000000	          0.00000000	          0.00000000	         21.66709805	        316.54761380	         16.49152060	          0.22880559	         -0.07500000	          0.02381110	          0.00000000	          0.00000000	          0.00000000	          0.00000000	         -3.22301680	          0.00000000	
          0.97200000	          0.00000000	          0.00000000	          0.00000000	          0.00000000	          0.00000000	          0.00000000	         25.69588823	        321.53134238	         15.52088780	          0.22990003	         -0.07500000	          0.02471384	          0.00000000	          0.00000000	          0.00000000	          0.00000000	         -3.58944667	          0.00000000	
          0.97600000	          0.00000000	          0.00000000	          0.00000000	          0.00000000	          0.00000000	          0.00000000	         29.59556224	        328.82796255	         14.38260878	          0.23105481	         -0.07500000	          0.02571970	          0.00000000	          0.00000000	          0.00000000	          0.00000000	         -3.96966218	          0.00000000	
          0.98000000	          0.00000000	          0.00000000	          0.00000000	          0.00000000	          0.00000000	          0.00000000	         33.27278980	        338.75700963	         13.12872699	          0.23222494	         -0.07500000	          0.02681279	          0.00000000	          0.00000000	          0.00000000	          0.00000000	         -4.35568394	          0.00000000	
          0.98400000	          0.00000000	          0.00000000	          0.00000000	          0.00000000	          0.00000000	          0.00000000	         36.60746477	        351.47972884	         11.79707247	          0.23333452	         -0.07500000	          0.02793137	          0.00000000	          0.00000000	          0.00000000	          0.00000000	         -4.74025730	          0.00000000	
          0.98800000	          0.00000000	          0.00000000	          0.00000000	          0.00000000	          0.00000000	          0.00000000	         39.50032913	        366.95718833	         10.41320680	          0.23429072	         -0.07500000	          0.02899950	          0.00000000	          0.00000000	          0.00000000	          0.00000000	         -5.11706771	          0.00000000	
          0.99200000	          0.00000000	          0.00000000	          0.00000000	          0.00000000	          0.00000000	          0.00000000	         41.91433730	        384.94813844	          8.98470249	          0.23501932	         -0.07500000	          0.02996020	          0.00000000	          0.00000000	          0.00000000	          0.00000000	         -5.48077002	          0.00000000	
          0.99600000	          0.00000000	          0.00000000	          0.00000000	          0.00000000	          0.00000000	          0.00000000	         43.89402107	        405.04430673	          7.49926187	          0.23548836	         -0.07500000	          0.03077524	          0.00000000	          0.00000000	          0.00000000	          0.00000000	         -5.82686558	          0.00000000	
          1.00000000	          0.00000000	          0.00000000	          0.00000000	          0.00000000	          0.00000000	          0.00000000	         45.57205933	        426.79047468	          5.93210113	          0.23574183	         -0.07500000	          0.03144085	          0.00000000	          0.00000000	          0.00000000	          0.00000000	         -6.15138908	          0.00000000	
          1.00400000	          0.00000000	          0.00000000	          0.00000000	          0.00000000	          0.00000000	          0.00000000	         47.15650279	        449.81352358	          4.26352425	          0.23592546	         -0.07500000	          0.03201286	          0.00000000	          0.00000000	          0.00000000	          0.00000000	         -6.45050735	          0.00000000	
          1.00800000	          0.00000000	          0.00000000	          0.00000000	          0.00000000	          0.00000000	          0.00000000	         48.87039722	        473.83807965	          2.50256713	          0.23621002	         -0.07500000	          0.03257718	          0.00000000	          0.00000000	          0.00000000	          0.00000000	         -6.72022447	          0.00000000	
          1.01200000	          0.00000000	          0.00000000	          0.00000000	          0.00000000	          0.00000000	          0.00000000	         50.87588474	        498.62238383	          0.69817725	          0.23663130	         -0.07500000	          0.03316653	          0.00000000	          0.00000000	          0.00000000	          0.00000000	         -6.95631697	          0.00000000	
          1.01600000	          0.00000000	          0.00000000	          0.00000000	          0.00000000	          0.00000000	          0.00000000	         53.25932665	        523.92053530	         -1.06207409	          0.23713335	         -0.07500000	          0.03376390	          0.00000000	          0.00000000	          0.00000000	          0.00000000	         -7.15452288	          0.00000000	
          1.02000000	          0.00000000	          0.00000000	          0.00000000	          0.00000000	          0.00000000	          0.00000000	         56.07882110	        549.49416753	         -2.66078886	          0.23762215	         -0.07500000	          0.03432981	          0.00000000	          0.00000000	          0.00000000	          0.00000000	         -7.31097933	          0.00000000	
          1.02400000	          0.00000000	          0.00000000	          0.00000000	          0.00000000	          0.00000000	          0.00000000	         59.41564487	        575.09974029	         -3.97592265	          0.23801168	         -0.07500000	          0.03482984	          0.00000000	          0.00000000	          0.00000000	          0.00000000	         -7.42285160	          0.00000000	
